<?xml-stylesheet href="./../css/rocket-animations-index.css" type="text/css"?>
<svg width="266" height="625" viewBox="0 0 266 625" fill="none" xmlns="http://www.w3.org/2000/svg">
<g id="rocket-whole">
<g id="rocket-boost">
<g id="rocket-boost-path">
<path id="rocket-boost-vector" d="M129.281 398.062C60.5678 398.062 42.3158 467.343 73.4515 532.835C74.5251 532.835 87.4088 487.432 87.4088 487.432L141.091 624.654L182.963 502.107L200.141 542.369C200.141 542.369 245.234 398.062 129.281 398.062Z" fill="#FF765F"/>
</g>
</g>
<g id="rocket-body">
<g id="Group">
<g id="Group_2">
<path id="Vector" d="M54.2565 269.822C-34.9675 359.046 0.998657 380.481 54.2565 479.378L84.6101 411.366L54.2565 269.822Z" fill="#EA3452"/>
</g>
</g>
<g id="Group_3">
<g id="Group_4">
<path id="Vector_2" d="M210.749 269.822C299.973 359.046 264.007 380.481 210.749 479.378L180.395 411.366L210.749 269.822Z" fill="#EA3452"/>
</g>
</g>
<g id="Group_5">
<g id="Group_6">
<path id="Vector_3" d="M210.747 479.378C227.43 448.399 242.414 425.021 252.388 404.779C231.442 407.079 201.575 398.182 197.642 330.935L180.395 411.366L210.747 479.378Z" fill="#AA2B46"/>
</g>
</g>
<g id="Group_7">
<g id="Group_8">
<path id="Vector_4" d="M54.2565 479.379L84.6101 411.367L54.733 272.051C62.991 351.611 71.2205 417.325 22.3667 423.096C31.3342 439.074 42.3609 457.291 54.2565 479.379Z" fill="#AA2B46"/>
</g>
</g>
<g id="Group_9">
<g id="Group_10">
<path id="Vector_5" d="M218.91 168.323C215.722 75.1641 132.53 0 132.53 0C132.53 0 49.3427 75.1641 46.1546 168.323C42.9665 261.482 84.6099 411.366 84.6099 411.366H180.455C180.455 411.366 222.099 261.482 218.91 168.323Z" fill="white"/>
</g>
</g>
<g id="Group_11">
<g id="Group_12">
<path id="Vector_6" d="M90.2256 49.6805C69.1295 80.0807 47.7389 121.972 46.1531 168.323C42.9651 261.482 84.6085 411.366 84.6085 411.366H180.454C180.454 411.366 182.86 402.693 186.471 388.251C91.7557 406.309 32.9228 304.892 90.2256 49.6805Z" fill="#DAD4E1"/>
</g>
</g>
<g id="Group_13">
<g id="Group_14">
<path id="Vector_7" d="M192.104 77.6126C166.72 30.8917 132.53 0.00151062 132.53 0.00151062C132.53 0.00151062 98.3438 30.8917 72.9595 77.6126H192.104Z" fill="#EA3452"/>
</g>
</g>
<g id="Group_15">
<g id="Group_16">
<path id="Vector_8" d="M72.9595 77.6126H192.104C191.435 76.3861 190.76 75.1761 190.083 73.9721C143.912 78.2725 75.7357 74.2532 132.53 0C132.53 0 98.3423 30.8917 72.9595 77.6126Z" fill="#AA2B46"/>
</g>
</g>
<g id="Group_17">
<g id="Group_18">
<path id="Vector_9" d="M165.636 136.327C185.414 156.105 185.414 188.172 165.636 207.949C145.86 227.727 113.793 227.727 94.0151 207.949C74.2358 188.172 74.2358 156.105 94.0151 136.327C113.793 116.549 145.86 116.549 165.636 136.327Z" fill="#DFDEDC"/>
</g>
<g id="Group_19">
<path id="Vector_10" d="M163.194 138.771C181.624 157.199 181.624 187.077 163.194 205.505C144.766 223.933 114.887 223.933 96.4593 205.505C78.0298 187.077 78.0298 157.199 96.4593 138.771C114.887 120.343 144.766 120.343 163.194 138.771Z" fill="#AA2B46"/>
</g>
<g id="Group_20">
<path id="Vector_11" d="M161.091 140.875C178.357 158.141 178.357 186.135 161.091 203.401C143.825 220.667 115.83 220.667 98.5619 203.401C81.2958 186.135 81.2958 158.141 98.5619 140.875C115.83 123.609 143.825 123.609 161.091 140.875Z" fill="#EA3452"/>
</g>
<g id="Group_21">
<path id="Vector_12" d="M156.253 145.711C170.848 160.306 170.848 183.971 156.253 198.566C141.657 213.161 117.993 213.161 103.398 198.566C88.8024 183.971 88.8024 160.306 103.398 145.711C117.993 131.115 141.657 131.115 156.253 145.711Z" fill="#38445F"/>
</g>
<g id="Group_22">
<path id="Vector_13" d="M154.598 147.367C168.279 161.048 168.279 183.229 154.598 196.909C140.916 210.59 118.737 210.59 105.057 196.909C91.3756 183.229 91.3756 161.048 105.057 147.367C118.737 133.686 140.916 133.686 154.598 147.367Z" fill="#88BAE8"/>
</g>
<g id="Group_23">
<path id="Vector_14" d="M105.055 196.909C113.15 205.003 124.214 208.268 134.739 206.785V137.492C124.214 136.008 113.15 139.274 105.055 147.369C104.752 147.671 104.492 147.998 104.202 148.309V195.967C104.492 196.278 104.752 196.606 105.055 196.909Z" fill="#BAE1FF"/>
</g>
<g id="Group_24">
<path id="Vector_15" d="M143.35 139.832V204.444C146.159 203.27 148.836 201.704 151.322 199.767V144.513C148.836 142.575 146.159 141.007 143.35 139.832Z" fill="#BAE1FF"/>
</g>
</g>
<g id="Group_25">
<g id="Group_26">
<path id="Vector_16" d="M79.1808 83.4551C79.1808 84.5644 78.282 85.4632 77.1727 85.4632C76.0634 85.4632 75.1646 84.5644 75.1646 83.4551C75.1646 82.3458 76.0634 81.4469 77.1727 81.4469C78.282 81.4469 79.1808 82.3458 79.1808 83.4551Z" fill="#B3AFB5"/>
</g>
<g id="Group_27">
<path id="Vector_17" d="M94.4601 83.4537C94.4601 84.563 93.5613 85.4618 92.452 85.4618C91.3427 85.4618 90.4438 84.563 90.4438 83.4537C90.4438 82.3444 91.3427 81.447 92.452 81.4455C93.5613 81.447 94.4601 82.3444 94.4601 83.4537Z" fill="#B3AFB5"/>
</g>
<g id="Group_28">
<path id="Vector_18" d="M109.739 83.4552C109.739 84.5645 108.84 85.4633 107.731 85.4633C106.622 85.4633 105.723 84.5645 105.723 83.4552C105.723 82.3459 106.622 81.447 107.731 81.447C108.84 81.447 109.739 82.3459 109.739 83.4552Z" fill="#B3AFB5"/>
</g>
<g id="Group_29">
<path id="Vector_19" d="M125.02 83.4552C125.02 84.5645 124.121 85.4633 123.012 85.4633C121.902 85.4618 121.003 84.5645 121.003 83.4552C121.003 82.3459 121.902 81.447 123.012 81.447C124.121 81.447 125.02 82.3459 125.02 83.4552Z" fill="#B3AFB5"/>
</g>
<g id="Group_30">
<path id="Vector_20" d="M140.3 83.4537C140.3 84.563 139.4 85.4618 138.292 85.4618C137.183 85.4618 136.284 84.563 136.284 83.4537C136.284 82.3444 137.183 81.4455 138.292 81.4455C139.4 81.4455 140.3 82.3444 140.3 83.4537Z" fill="#B3AFB5"/>
</g>
<g id="Group_31">
<path id="Vector_21" d="M155.579 83.4552C155.579 84.5645 154.68 85.4633 153.571 85.4633C152.463 85.4633 151.563 84.5645 151.563 83.4552C151.563 82.3459 152.463 81.447 153.571 81.447C154.68 81.447 155.579 82.3459 155.579 83.4552Z" fill="#B3AFB5"/>
</g>
<g id="Group_32">
<path id="Vector_22" d="M170.858 83.4537C170.858 84.563 169.959 85.4633 168.85 85.4633C167.742 85.4633 166.842 84.563 166.842 83.4537C166.842 82.3459 167.742 81.447 168.85 81.447C169.959 81.447 170.858 82.3444 170.858 83.4537Z" fill="#B3AFB5"/>
</g>
<g id="Group_33">
<path id="Vector_23" d="M186.138 83.4537C186.138 84.563 185.238 85.4618 184.13 85.4618C183.021 85.4618 182.122 84.563 182.122 83.4537C182.122 82.3444 183.021 81.4455 184.13 81.4455C185.238 81.4455 186.138 82.3444 186.138 83.4537Z" fill="#B3AFB5"/>
</g>
</g>
<g id="Group_34">
<g id="Group_35">
<path id="Vector_24" d="M92.6681 405.449C92.6681 406.673 91.673 407.668 90.4495 407.668C89.2245 407.668 88.2324 406.673 88.2324 405.449C88.2309 404.224 89.2245 403.231 90.4495 403.231C91.673 403.231 92.6681 404.224 92.6681 405.449Z" fill="#B3AFB5"/>
</g>
<g id="Group_36">
<path id="Vector_25" d="M109.539 405.449C109.539 406.673 108.544 407.668 107.319 407.668C106.095 407.668 105.102 406.673 105.102 405.449C105.102 404.224 106.095 403.231 107.32 403.231C108.544 403.231 109.539 404.224 109.539 405.449Z" fill="#B3AFB5"/>
</g>
<g id="Group_37">
<path id="Vector_26" d="M126.411 405.449C126.411 406.673 125.416 407.668 124.191 407.668C122.968 407.668 121.974 406.673 121.974 405.449C121.974 404.224 122.968 403.231 124.191 403.231C125.416 403.231 126.411 404.224 126.411 405.449Z" fill="#B3AFB5"/>
</g>
<g id="Group_38">
<path id="Vector_27" d="M143.281 405.449C143.281 406.673 142.289 407.668 141.064 407.668C139.839 407.668 138.847 406.673 138.847 405.449C138.847 404.224 139.839 403.231 141.064 403.231C142.289 403.231 143.281 404.224 143.281 405.449Z" fill="#B3AFB5"/>
</g>
<g id="Group_39">
<path id="Vector_28" d="M160.153 405.449C160.153 406.673 159.161 407.668 157.936 407.668C156.711 407.668 155.719 406.673 155.719 405.449C155.719 404.224 156.711 403.231 157.936 403.231C159.161 403.231 160.153 404.224 160.153 405.449Z" fill="#B3AFB5"/>
</g>
<g id="Group_40">
<path id="Vector_29" d="M177.025 405.449C177.025 406.673 176.033 407.668 174.808 407.668C173.583 407.668 172.591 406.673 172.591 405.449C172.591 404.224 173.583 403.231 174.808 403.231C176.033 403.231 177.025 404.224 177.025 405.449Z" fill="#B3AFB5"/>
</g>
</g>
<g id="Group_41">
<g id="Group_42">
<path id="Vector_30" d="M132.532 264.206V479.378C132.532 479.378 121.634 418.403 121.634 342.62C121.634 266.836 132.532 264.206 132.532 264.206Z" fill="#EA3452"/>
</g>
<g id="Group_43">
<path id="Vector_31" d="M132.53 264.206V479.378C132.53 479.378 143.431 418.403 143.431 342.62C143.431 266.837 132.53 264.206 132.53 264.206Z" fill="#AA2B46"/>
</g>
</g>
</g>
</g>
</svg>
